<svg id="visual" viewBox="0 0 960 540" width="960" height="540" xmlns="http://www.w3.org/2000/svg" xmlns:xlink="http://www.w3.org/1999/xlink" version="1.1"><rect x="0" y="0" width="960" height="540" fill="#001220"></rect><path d="M0 327L22.8 334.7C45.7 342.3 91.3 357.7 137 359.3C182.7 361 228.3 349 274 341.5C319.7 334 365.3 331 411.2 329.7C457 328.3 503 328.7 548.8 337C594.7 345.3 640.3 361.7 686 372.8C731.7 384 777.3 390 823 393.3C868.7 396.7 914.3 397.3 937.2 397.7L960 398L960 541L937.2 541C914.3 541 868.7 541 823 541C777.3 541 731.7 541 686 541C640.3 541 594.7 541 548.8 541C503 541 457 541 411.2 541C365.3 541 319.7 541 274 541C228.3 541 182.7 541 137 541C91.3 541 45.7 541 22.8 541L0 541Z" fill="#fa7268"></path><path d="M0 368L22.8 366.8C45.7 365.7 91.3 363.3 137 365.7C182.7 368 228.3 375 274 381C319.7 387 365.3 392 411.2 397.5C457 403 503 409 548.8 413.5C594.7 418 640.3 421 686 418.5C731.7 416 777.3 408 823 401.5C868.7 395 914.3 390 937.2 387.5L960 385L960 541L937.2 541C914.3 541 868.7 541 823 541C777.3 541 731.7 541 686 541C640.3 541 594.7 541 548.8 541C503 541 457 541 411.2 541C365.3 541 319.7 541 274 541C228.3 541 182.7 541 137 541C91.3 541 45.7 541 22.8 541L0 541Z" fill="#ef5f67"></path><path d="M0 394L22.8 401.8C45.7 409.7 91.3 425.3 137 434.7C182.7 444 228.3 447 274 448.7C319.7 450.3 365.3 450.7 411.2 447.8C457 445 503 439 548.8 430C594.7 421 640.3 409 686 410.8C731.7 412.7 777.3 428.3 823 431.5C868.7 434.7 914.3 425.3 937.2 420.7L960 416L960 541L937.2 541C914.3 541 868.7 541 823 541C777.3 541 731.7 541 686 541C640.3 541 594.7 541 548.8 541C503 541 457 541 411.2 541C365.3 541 319.7 541 274 541C228.3 541 182.7 541 137 541C91.3 541 45.7 541 22.8 541L0 541Z" fill="#e34c67"></path><path d="M0 472L22.8 466.2C45.7 460.3 91.3 448.7 137 444.2C182.7 439.7 228.3 442.3 274 443.8C319.7 445.3 365.3 445.7 411.2 444C457 442.3 503 438.7 548.8 445.5C594.7 452.3 640.3 469.7 686 474.2C731.7 478.7 777.3 470.3 823 462C868.7 453.7 914.3 445.3 937.2 441.2L960 437L960 541L937.2 541C914.3 541 868.7 541 823 541C777.3 541 731.7 541 686 541C640.3 541 594.7 541 548.8 541C503 541 457 541 411.2 541C365.3 541 319.7 541 274 541C228.3 541 182.7 541 137 541C91.3 541 45.7 541 22.8 541L0 541Z" fill="#d53867"></path><path d="M0 513L22.8 509.2C45.7 505.3 91.3 497.7 137 492.7C182.7 487.7 228.3 485.3 274 482.5C319.7 479.7 365.3 476.3 411.2 476.7C457 477 503 481 548.8 488.2C594.7 495.3 640.3 505.7 686 508.7C731.7 511.7 777.3 507.3 823 506.5C868.7 505.7 914.3 508.3 937.2 509.7L960 511L960 541L937.2 541C914.3 541 868.7 541 823 541C777.3 541 731.7 541 686 541C640.3 541 594.7 541 548.8 541C503 541 457 541 411.2 541C365.3 541 319.7 541 274 541C228.3 541 182.7 541 137 541C91.3 541 45.7 541 22.8 541L0 541Z" fill="#c62368"></path></svg>