<svg id="visual" viewBox="0 0 960 540" width="960" height="540" xmlns="http://www.w3.org/2000/svg" xmlns:xlink="http://www.w3.org/1999/xlink" version="1.1"><rect x="0" y="0" width="960" height="540" fill="#140021"></rect><path d="M0 320L137 320L137 328L274 328L274 228L411 228L411 302L549 302L549 304L686 304L686 234L823 234L823 249L960 249L960 254L960 541L960 541L823 541L823 541L686 541L686 541L549 541L549 541L411 541L411 541L274 541L274 541L137 541L137 541L0 541Z" fill="#9900ff"></path><path d="M0 382L137 382L137 410L274 410L274 392L411 392L411 361L549 361L549 355L686 355L686 374L823 374L823 359L960 359L960 406L960 541L960 541L823 541L823 541L686 541L686 541L549 541L549 541L411 541L411 541L274 541L274 541L137 541L137 541L0 541Z" fill="#7700c6"></path><path d="M0 400L137 400L137 403L274 403L274 450L411 450L411 487L549 487L549 428L686 428L686 416L823 416L823 409L960 409L960 445L960 541L960 541L823 541L823 541L686 541L686 541L549 541L549 541L411 541L411 541L274 541L274 541L137 541L137 541L0 541Z" fill="#560090"></path></svg>