<svg id="visual" viewBox="0 0 960 540" width="960" height="540" xmlns="http://www.w3.org/2000/svg" xmlns:xlink="http://www.w3.org/1999/xlink" version="1.1"><path d="M0 39L87 39L87 82L175 82L175 50L262 50L262 87L349 87L349 87L436 87L436 33L524 33L524 82L611 82L611 55L698 55L698 55L785 55L785 60L873 60L873 33L960 33L960 82L960 0L960 0L873 0L873 0L785 0L785 0L698 0L698 0L611 0L611 0L524 0L524 0L436 0L436 0L349 0L349 0L262 0L262 0L175 0L175 0L87 0L87 0L0 0Z" fill="#fa7268"></path><path d="M0 136L87 136L87 217L175 217L175 168L262 168L262 276L349 276L349 168L436 168L436 147L524 147L524 320L611 320L611 266L698 266L698 233L785 233L785 179L873 179L873 255L960 255L960 185L960 80L960 31L873 31L873 58L785 58L785 53L698 53L698 53L611 53L611 80L524 80L524 31L436 31L436 85L349 85L349 85L262 85L262 48L175 48L175 80L87 80L87 37L0 37Z" fill="#ea5e66"></path><path d="M0 249L87 249L87 309L175 309L175 276L262 276L262 341L349 341L349 255L436 255L436 206L524 206L524 368L611 368L611 374L698 374L698 320L785 320L785 287L873 287L873 374L960 374L960 266L960 183L960 253L873 253L873 177L785 177L785 231L698 231L698 264L611 264L611 318L524 318L524 145L436 145L436 166L349 166L349 274L262 274L262 166L175 166L175 215L87 215L87 134L0 134Z" fill="#d84a64"></path><path d="M0 492L87 492L87 482L175 482L175 487L262 487L262 411L349 411L349 411L436 411L436 471L524 471L524 455L611 455L611 487L698 487L698 422L785 422L785 492L873 492L873 471L960 471L960 487L960 264L960 372L873 372L873 285L785 285L785 318L698 318L698 372L611 372L611 366L524 366L524 204L436 204L436 253L349 253L349 339L262 339L262 274L175 274L175 307L87 307L87 247L0 247Z" fill="#c53762"></path><path d="M0 541L87 541L87 541L175 541L175 541L262 541L262 541L349 541L349 541L436 541L436 541L524 541L524 541L611 541L611 541L698 541L698 541L785 541L785 541L873 541L873 541L960 541L960 541L960 485L960 469L873 469L873 490L785 490L785 420L698 420L698 485L611 485L611 453L524 453L524 469L436 469L436 409L349 409L349 409L262 409L262 485L175 485L175 480L87 480L87 490L0 490Z" fill="#b0235f"></path></svg>