<svg id="visual" viewBox="0 0 960 540" width="960" height="540" xmlns="http://www.w3.org/2000/svg" xmlns:xlink="http://www.w3.org/1999/xlink" version="1.1"><rect x="0" y="0" width="960" height="540" fill="#002233"></rect><path d="M0 421L22.8 418C45.7 415 91.3 409 137 398C182.7 387 228.3 371 274 376.3C319.7 381.7 365.3 408.3 411.2 409.2C457 410 503 385 548.8 375.7C594.7 366.3 640.3 372.7 686 387.2C731.7 401.7 777.3 424.3 823 435.8C868.7 447.3 914.3 447.7 937.2 447.8L960 448L960 541L937.2 541C914.3 541 868.7 541 823 541C777.3 541 731.7 541 686 541C640.3 541 594.7 541 548.8 541C503 541 457 541 411.2 541C365.3 541 319.7 541 274 541C228.3 541 182.7 541 137 541C91.3 541 45.7 541 22.8 541L0 541Z" fill="#0066FF" stroke-linecap="round" stroke-linejoin="miter"></path></svg>