<svg id="visual" viewBox="0 0 960 540" width="960" height="540" xmlns="http://www.w3.org/2000/svg" xmlns:xlink="http://www.w3.org/1999/xlink" version="1.1"><rect x="0" y="0" width="960" height="540" fill="#001220"></rect><path d="M0 383L22.8 380C45.7 377 91.3 371 137 361.5C182.7 352 228.3 339 274 333.8C319.7 328.7 365.3 331.3 411.2 333C457 334.7 503 335.3 548.8 344C594.7 352.7 640.3 369.3 686 378.2C731.7 387 777.3 388 823 381.3C868.7 374.7 914.3 360.3 937.2 353.2L960 346L960 541L937.2 541C914.3 541 868.7 541 823 541C777.3 541 731.7 541 686 541C640.3 541 594.7 541 548.8 541C503 541 457 541 411.2 541C365.3 541 319.7 541 274 541C228.3 541 182.7 541 137 541C91.3 541 45.7 541 22.8 541L0 541Z" fill="#0c1b2f"></path><path d="M0 365L22.8 370C45.7 375 91.3 385 137 394.8C182.7 404.7 228.3 414.3 274 413.8C319.7 413.3 365.3 402.7 411.2 391C457 379.3 503 366.7 548.8 366.3C594.7 366 640.3 378 686 386C731.7 394 777.3 398 823 398.3C868.7 398.7 914.3 395.3 937.2 393.7L960 392L960 541L937.2 541C914.3 541 868.7 541 823 541C777.3 541 731.7 541 686 541C640.3 541 594.7 541 548.8 541C503 541 457 541 411.2 541C365.3 541 319.7 541 274 541C228.3 541 182.7 541 137 541C91.3 541 45.7 541 22.8 541L0 541Z" fill="#124c69"></path><path d="M0 412L22.8 411.8C45.7 411.7 91.3 411.3 137 416.5C182.7 421.7 228.3 432.3 274 438C319.7 443.7 365.3 444.3 411.2 438C457 431.7 503 418.3 548.8 411.7C594.7 405 640.3 405 686 408.8C731.7 412.7 777.3 420.3 823 419.2C868.7 418 914.3 408 937.2 403L960 398L960 541L937.2 541C914.3 541 868.7 541 823 541C777.3 541 731.7 541 686 541C640.3 541 594.7 541 548.8 541C503 541 457 541 411.2 541C365.3 541 319.7 541 274 541C228.3 541 182.7 541 137 541C91.3 541 45.7 541 22.8 541L0 541Z" fill="#00859e"></path><path d="M0 464L22.8 460C45.7 456 91.3 448 137 451.2C182.7 454.3 228.3 468.7 274 468.2C319.7 467.7 365.3 452.3 411.2 444.8C457 437.3 503 437.7 548.8 437.7C594.7 437.7 640.3 437.3 686 442.7C731.7 448 777.3 459 823 459.5C868.7 460 914.3 450 937.2 445L960 440L960 541L937.2 541C914.3 541 868.7 541 823 541C777.3 541 731.7 541 686 541C640.3 541 594.7 541 548.8 541C503 541 457 541 411.2 541C365.3 541 319.7 541 274 541C228.3 541 182.7 541 137 541C91.3 541 45.7 541 22.8 541L0 541Z" fill="#00c2c6"></path><path d="M0 472L22.8 472.7C45.7 473.3 91.3 474.7 137 478.7C182.7 482.7 228.3 489.3 274 494.7C319.7 500 365.3 504 411.2 505.8C457 507.7 503 507.3 548.8 505.2C594.7 503 640.3 499 686 493.8C731.7 488.7 777.3 482.3 823 482.8C868.7 483.3 914.3 490.7 937.2 494.3L960 498L960 541L937.2 541C914.3 541 868.7 541 823 541C777.3 541 731.7 541 686 541C640.3 541 594.7 541 548.8 541C503 541 457 541 411.2 541C365.3 541 319.7 541 274 541C228.3 541 182.7 541 137 541C91.3 541 45.7 541 22.8 541L0 541Z" fill="#64ffda"></path></svg>